<svg xmlns="http://www.w3.org/2000/svg" viewBox="0 0 60 60"><defs><style>.cls-1{fill:#323e48;}</style></defs><g id="Layer_2" data-name="Layer 2"><g id="Layer_1-2" data-name="Layer 1"><polygon class="cls-1" points="10.37 15.41 10.37 15.41 10.37 15.41 10.37 15.41"/><path class="cls-1" d="M60,39.45a1.25,1.25,0,0,0-.11-.41L50.33,16.11a.7.7,0,0,0-.06-.09.47.47,0,0,1-.09-.12l-.09-.14a.15.15,0,0,0,0-.06h0l-.07,0-.14-.09-.12-.08a.24.24,0,0,0-.08-.06h0a1.43,1.43,0,0,0-.5-.09H31.91a.63.63,0,0,1-.63-.62V12.46a.63.63,0,0,1,.45-.6,6.07,6.07,0,1,0-3.46,0,.62.62,0,0,1,.44.6v2.23a.63.63,0,0,1-.63.62H10.86a1.33,1.33,0,0,0-.49.09h0l-.28.2-.12.09,0,0-.09.14L9.73,16l-.06.08-9.56,23a.5.5,0,0,0,0,.13h0l0,.12v.13a.76.76,0,0,0,0,.15,10.86,10.86,0,0,0,21.71,0v-.14a.43.43,0,0,1,0,0v-.07a1.43,1.43,0,0,0-.09-.27L13.15,18.76a.62.62,0,0,1,.06-.59.6.6,0,0,1,.52-.28H28.08a.63.63,0,0,1,.63.62v33.8H21.79a1.28,1.28,0,0,0-1.28,1.28v5.12a1.29,1.29,0,0,0,.78,1.19,1.35,1.35,0,0,0,.5.1H38.21a1.28,1.28,0,0,0,1.28-1.29h0V53.59a.88.88,0,0,0-.06-.28.85.85,0,0,0,0-.22l0-.05a1.26,1.26,0,0,0-1.14-.73H31.28V18.51a.63.63,0,0,1,.63-.62H46.27a.6.6,0,0,1,.52.28.62.62,0,0,1,.06.59s-8.47,20.32-8.47,20.33l0,.1a.45.45,0,0,0,0,.08v0a1.1,1.1,0,0,0,0,.32A10.86,10.86,0,0,0,60,39.57.57.57,0,0,0,60,39.45ZM18.77,41.1a.61.61,0,0,1,.11.54,8.29,8.29,0,0,1-16,0A.65.65,0,0,1,3,41.1a.63.63,0,0,1,.49-.24H18.27A.64.64,0,0,1,18.77,41.1Zm-.63-3.68a.62.62,0,0,1-.06.59.64.64,0,0,1-.52.28H4.16A.66.66,0,0,1,3.63,38a.65.65,0,0,1,0-.59l6.7-16.09a.61.61,0,0,1,.58-.38.64.64,0,0,1,.58.38ZM36.92,54.88v2.55H23.08V54.88ZM30,9.57a3.5,3.5,0,1,1,3.5-3.5A3.5,3.5,0,0,1,30,9.57ZM41.86,37.42l6.7-16.09a.63.63,0,0,1,1.16,0l6.7,16.09a.63.63,0,0,1-.58.87H42.44a.63.63,0,0,1-.58-.87Zm15.3,4.22a8.28,8.28,0,0,1-16,0,.61.61,0,0,1,.11-.54.64.64,0,0,1,.5-.24H56.56a.63.63,0,0,1,.49.24A.61.61,0,0,1,57.16,41.64Z"/></g></g></svg>